<svg width="63" height="58" viewBox="0 0 63 58" fill="none" xmlns="http://www.w3.org/2000/svg">
<path d="M22.4707 1.17201C22.8914 -0.39067 25.1086 -0.39067 25.5293 1.17201L29.8104 17.0721C29.9571 17.6171 30.3829 18.0429 30.9279 18.1896L46.828 22.4707C48.3907 22.8914 48.3907 25.1086 46.828 25.5293L30.9279 29.8104C30.3829 29.9571 29.9571 30.3829 29.8104 30.9279L25.5293 46.828C25.1086 48.3907 22.8914 48.3907 22.4707 46.828L18.1896 30.9279C18.0429 30.3829 17.6171 29.9571 17.0721 29.8104L1.17201 25.5293C-0.39067 25.1086 -0.39067 22.8914 1.17201 22.4707L17.0721 18.1896C17.6171 18.0429 18.0429 17.6171 18.1896 17.0721L22.4707 1.17201Z" fill="#FCBEA7"/>
<path d="M48.6398 30.6837C48.8764 29.7721 50.1236 29.7721 50.3602 30.6837L52.7683 39.9587C52.8509 40.2767 53.0904 40.525 53.397 40.6106L62.3407 43.1079C63.2198 43.3533 63.2198 44.6467 62.3407 44.8921L53.397 47.3894C53.0904 47.475 52.8509 47.7233 52.7683 48.0413L50.3602 57.3163C50.1236 58.2279 48.8764 58.2279 48.6398 57.3163L46.2317 48.0413C46.1491 47.7233 45.9096 47.475 45.603 47.3894L36.6593 44.8921C35.7802 44.6467 35.7802 43.3533 36.6593 43.1079L45.603 40.6106C45.9096 40.525 46.1491 40.2767 46.2317 39.9587L48.6398 30.6837Z" fill="#FCBEA7"/>
</svg>
