<svg width="303" height="50" viewBox="0 0 303 50" fill="none" xmlns="http://www.w3.org/2000/svg">
<path fill-rule="evenodd" clip-rule="evenodd" d="M98.4576 28.1511C95.2421 23.7953 92.7517 18.8715 91.1645 13.558C90.7637 13.5081 90.3553 13.4824 89.941 13.4824C84.5255 13.4824 80.1354 17.8725 80.1354 23.288C80.1354 28.7035 84.5255 33.0936 89.941 33.0936C93.5868 33.0936 96.7679 31.1038 98.4576 28.1511ZM89.941 18.5543C92.5553 18.5543 94.6747 20.6737 94.6747 23.288C94.6747 25.9024 92.5553 28.0217 89.941 28.0217C87.3266 28.0217 85.2072 25.9024 85.2072 23.288C85.2072 20.6737 87.3266 18.5543 89.941 18.5543Z" fill="#FF479D"/>
<path fill-rule="evenodd" clip-rule="evenodd" d="M47.9851 23.9173C46.5343 22.317 45.2325 20.5794 44.101 18.7267C44.4595 18.7957 44.8286 18.8357 45.2058 18.8442C48.8621 18.9265 51.8932 16.0175 51.9759 12.3467C52.0553 8.82128 49.3835 5.87176 45.9354 5.5742C45.7945 5.56206 45.6509 5.55416 45.5053 5.55088L42.8263 5.49052L40.86 7.31675C40.5069 7.64477 40.1898 8.00963 39.9151 8.40553C39.3092 5.72049 39.0172 2.91866 39.079 0.0419922L45.6261 0.189497C45.8841 0.19531 46.1401 0.209293 46.3937 0.231188C52.6323 0.769502 57.4596 6.09422 57.316 12.467C57.1891 18.0976 53.2226 22.7362 47.9851 23.9173Z" fill="#FF479D"/>
<path fill-rule="evenodd" clip-rule="evenodd" d="M37.4727 31.1323C39.9429 33.9995 42.7492 36.5689 45.8304 38.7794C41.3604 45.5402 33.6904 49.9997 24.9789 49.9997C11.1834 49.9997 0 38.8163 0 25.0209C0 11.2254 11.1834 0.0419922 24.9789 0.0419922C25.3044 0.0419922 25.6285 0.0482247 25.951 0.0605659L25.951 0.0842576C25.951 3.94956 26.4118 7.70718 27.2814 11.3053C26.5325 11.1805 25.7633 11.1155 24.9789 11.1155C17.2992 11.1155 11.0735 17.3411 11.0735 25.0209C11.0735 32.7006 17.2992 38.9262 24.9789 38.9262C30.4659 38.9262 35.2106 35.7482 37.4727 31.1323Z" fill="#FF479D"/>
<path fill-rule="evenodd" clip-rule="evenodd" d="M40.5156 31.1323C42.9858 33.9995 45.7921 36.5689 48.8733 38.7794C56.678 44.3786 66.2464 47.6751 76.5848 47.6751C81.742 47.6751 86.7076 46.8548 91.3582 45.3375C95.6184 43.9476 99.6142 41.973 103.251 39.5083C104.907 38.3857 106.489 37.1614 107.988 35.8444C110.004 34.0728 111.868 32.1336 113.56 30.0483C120.198 21.8674 124.176 11.4403 124.176 0.0842576L124.176 0.0419922H116.145L116.145 0.0842576C116.145 9.13744 113.104 17.4803 107.988 24.1472C102.872 17.4803 99.8308 9.13744 99.8308 0.0842576L99.8308 0.0419922H91.8004L91.8003 0.0842576C91.8003 4.82579 92.4937 9.40535 93.7847 13.7271C95.3719 19.0406 97.8623 23.9643 101.078 28.3201C101.511 28.9066 101.957 29.4828 102.416 30.0483C99.1481 32.8677 95.4144 35.1617 91.3459 36.799C87.6266 38.2957 83.6274 39.2437 79.4486 39.5426C78.5028 39.6103 77.5478 39.6447 76.5848 39.6447C67.3933 39.6447 58.9339 36.51 52.2173 31.2515C50.6954 30.0599 49.263 28.7593 47.9318 27.3614C46.2145 25.558 44.6657 23.5928 43.3107 21.4909C41.01 17.9221 39.2678 13.9593 38.2076 9.7261C37.5626 7.15039 37.17 4.47458 37.0578 1.72646C37.0361 1.19579 37.0249 0.662394 37.0243 0.126523L37.0243 0.0842576L37.0243 0.0419922H28.9939L28.9939 0.0605659L28.9939 0.0842576C28.9939 3.94956 29.4547 7.70718 30.3244 11.3053C30.4698 11.9071 30.6267 12.5044 30.7948 13.097C31.4466 15.3952 32.2668 17.6226 33.2412 19.765C33.2953 19.8841 33.3499 20.0028 33.405 20.1213C33.5565 20.4472 33.7115 20.7711 33.8701 21.0929L33.9178 21.1894C33.9598 21.2741 34.002 21.3587 34.0445 21.4432L34.0658 21.4853C34.6017 22.5481 35.1764 23.588 35.7879 24.6033C37.1801 26.9149 38.7633 29.0985 40.5156 31.1323Z" fill="#FF479D"/>
<path fill-rule="evenodd" clip-rule="evenodd" d="M64.0323 4.19948e-05L60.017 4.19948e-05C58.5459 16.2083 65.0984 28.3559 76.8387 37.9121C80.983 37.9913 83.6909 37.1521 87.4896 36.0101C73.631 28.9674 66.5567 16.4245 68.0475 7.19925e-07L64.0323 4.19948e-05Z" fill="#FF479D"/>
<path d="M139.497 36.272C138.953 36.272 138.511 36.1473 138.171 35.898C137.854 35.6487 137.661 35.32 137.593 34.912C137.525 34.4813 137.605 34.0053 137.831 33.484L146.807 13.594C147.102 12.9367 147.453 12.472 147.861 12.2C148.292 11.9053 148.779 11.758 149.323 11.758C149.845 11.758 150.309 11.9053 150.717 12.2C151.148 12.472 151.511 12.9367 151.805 13.594L160.815 33.484C161.065 34.0053 161.155 34.4813 161.087 34.912C161.019 35.3427 160.827 35.6827 160.509 35.932C160.192 36.1587 159.773 36.272 159.251 36.272C158.617 36.272 158.118 36.1247 157.755 35.83C157.415 35.5127 157.109 35.0367 156.837 34.402L154.627 29.268L156.463 30.458H142.115L143.951 29.268L141.775 34.402C141.481 35.0593 141.175 35.5353 140.857 35.83C140.54 36.1247 140.087 36.272 139.497 36.272ZM149.255 16.756L144.495 28.078L143.611 26.99H154.967L154.117 28.078L149.323 16.756H149.255ZM169.915 36.34C168.034 36.34 166.617 35.8073 165.665 34.742C164.713 33.654 164.237 32.0673 164.237 29.982V13.9C164.237 13.1973 164.418 12.6647 164.781 12.302C165.144 11.9393 165.665 11.758 166.345 11.758C167.025 11.758 167.546 11.9393 167.909 12.302C168.294 12.6647 168.487 13.1973 168.487 13.9V29.778C168.487 30.8207 168.702 31.5913 169.133 32.09C169.586 32.5887 170.221 32.838 171.037 32.838C171.218 32.838 171.388 32.838 171.547 32.838C171.706 32.8153 171.864 32.7927 172.023 32.77C172.34 32.7247 172.556 32.8153 172.669 33.042C172.782 33.246 172.839 33.6767 172.839 34.334C172.839 34.9007 172.726 35.3427 172.499 35.66C172.272 35.9773 171.898 36.17 171.377 36.238C171.15 36.2607 170.912 36.2833 170.663 36.306C170.414 36.3287 170.164 36.34 169.915 36.34ZM177.288 42.392C176.608 42.392 176.086 42.2107 175.724 41.848C175.361 41.4853 175.18 40.9527 175.18 40.25V21.244C175.18 20.5413 175.361 20.0087 175.724 19.646C176.086 19.2833 176.596 19.102 177.254 19.102C177.934 19.102 178.455 19.2833 178.818 19.646C179.18 20.0087 179.362 20.5413 179.362 21.244V23.896L178.988 22.876C179.328 21.72 180.019 20.7907 181.062 20.088C182.127 19.3853 183.362 19.034 184.768 19.034C186.218 19.034 187.488 19.3853 188.576 20.088C189.686 20.7907 190.548 21.788 191.16 23.08C191.772 24.3493 192.078 25.8793 192.078 27.67C192.078 29.438 191.772 30.9793 191.16 32.294C190.548 33.586 189.698 34.5833 188.61 35.286C187.522 35.9887 186.241 36.34 184.768 36.34C183.385 36.34 182.172 36 181.13 35.32C180.087 34.6173 179.384 33.7107 179.022 32.6H179.43V40.25C179.43 40.9527 179.237 41.4853 178.852 41.848C178.489 42.2107 177.968 42.392 177.288 42.392ZM183.578 33.11C184.416 33.11 185.153 32.906 185.788 32.498C186.422 32.09 186.91 31.4893 187.25 30.696C187.612 29.88 187.794 28.8713 187.794 27.67C187.794 25.8567 187.408 24.508 186.638 23.624C185.867 22.7173 184.847 22.264 183.578 22.264C182.739 22.264 182.002 22.468 181.368 22.876C180.733 23.2613 180.234 23.862 179.872 24.678C179.532 25.4713 179.362 26.4687 179.362 27.67C179.362 29.4607 179.747 30.8207 180.518 31.75C181.288 32.6567 182.308 33.11 183.578 33.11ZM197.759 36.272C197.079 36.272 196.558 36.0907 196.195 35.728C195.833 35.3427 195.651 34.7987 195.651 34.096V13.9C195.651 13.1973 195.833 12.6647 196.195 12.302C196.558 11.9393 197.079 11.758 197.759 11.758C198.439 11.758 198.961 11.9393 199.323 12.302C199.709 12.6647 199.901 13.1973 199.901 13.9V22.706H199.425C199.924 21.5047 200.695 20.598 201.737 19.986C202.803 19.3513 204.004 19.034 205.341 19.034C206.679 19.034 207.778 19.2833 208.639 19.782C209.501 20.2807 210.147 21.04 210.577 22.06C211.008 23.0573 211.223 24.3267 211.223 25.868V34.096C211.223 34.7987 211.042 35.3427 210.679 35.728C210.317 36.0907 209.795 36.272 209.115 36.272C208.435 36.272 207.903 36.0907 207.517 35.728C207.155 35.3427 206.973 34.7987 206.973 34.096V26.072C206.973 24.78 206.724 23.8393 206.225 23.25C205.749 22.6607 205.001 22.366 203.981 22.366C202.735 22.366 201.737 22.7627 200.989 23.556C200.264 24.3267 199.901 25.358 199.901 26.65V34.096C199.901 35.5467 199.187 36.272 197.759 36.272ZM221.099 36.34C219.898 36.34 218.821 36.1133 217.869 35.66C216.94 35.184 216.203 34.5493 215.659 33.756C215.138 32.9627 214.877 32.0673 214.877 31.07C214.877 29.846 215.194 28.8827 215.829 28.18C216.464 27.4547 217.495 26.9333 218.923 26.616C220.351 26.2987 222.266 26.14 224.669 26.14H226.369V28.588H224.703C223.298 28.588 222.176 28.656 221.337 28.792C220.498 28.928 219.898 29.166 219.535 29.506C219.195 29.8233 219.025 30.2767 219.025 30.866C219.025 31.614 219.286 32.226 219.807 32.702C220.328 33.178 221.054 33.416 221.983 33.416C222.731 33.416 223.388 33.246 223.955 32.906C224.544 32.5433 225.009 32.056 225.349 31.444C225.689 30.832 225.859 30.1293 225.859 29.336V25.426C225.859 24.2927 225.61 23.4767 225.111 22.978C224.612 22.4793 223.774 22.23 222.595 22.23C221.938 22.23 221.224 22.3093 220.453 22.468C219.705 22.6267 218.912 22.8987 218.073 23.284C217.642 23.488 217.257 23.5447 216.917 23.454C216.6 23.3633 216.35 23.182 216.169 22.91C215.988 22.6153 215.897 22.298 215.897 21.958C215.897 21.618 215.988 21.2893 216.169 20.972C216.35 20.632 216.656 20.3827 217.087 20.224C218.13 19.7933 219.127 19.4873 220.079 19.306C221.054 19.1247 221.938 19.034 222.731 19.034C224.363 19.034 225.7 19.2833 226.743 19.782C227.808 20.2807 228.602 21.04 229.123 22.06C229.644 23.0573 229.905 24.3493 229.905 25.936V34.096C229.905 34.7987 229.735 35.3427 229.395 35.728C229.055 36.0907 228.568 36.272 227.933 36.272C227.298 36.272 226.8 36.0907 226.437 35.728C226.097 35.3427 225.927 34.7987 225.927 34.096V32.464H226.199C226.04 33.2573 225.723 33.9487 225.247 34.538C224.794 35.1047 224.216 35.5467 223.513 35.864C222.81 36.1813 222.006 36.34 221.099 36.34ZM236.888 36.272C236.185 36.272 235.641 36.0793 235.256 35.694C234.893 35.286 234.712 34.7307 234.712 34.028V14.24C234.712 13.5147 234.904 12.9707 235.29 12.608C235.675 12.2227 236.219 12.03 236.922 12.03H245.116C247.745 12.03 249.774 12.6873 251.202 14.002C252.63 15.3167 253.344 17.1527 253.344 19.51C253.344 21.8673 252.63 23.7147 251.202 25.052C249.774 26.3667 247.745 27.024 245.116 27.024H239.064V34.028C239.064 34.7307 238.882 35.286 238.52 35.694C238.157 36.0793 237.613 36.272 236.888 36.272ZM239.064 23.59H244.436C245.977 23.59 247.144 23.25 247.938 22.57C248.731 21.8673 249.128 20.8473 249.128 19.51C249.128 18.1727 248.731 17.164 247.938 16.484C247.144 15.804 245.977 15.464 244.436 15.464H239.064V23.59ZM262.246 36.34C260.365 36.34 258.948 35.8073 257.996 34.742C257.044 33.654 256.568 32.0673 256.568 29.982V13.9C256.568 13.1973 256.75 12.6647 257.112 12.302C257.475 11.9393 257.996 11.758 258.676 11.758C259.356 11.758 259.878 11.9393 260.24 12.302C260.626 12.6647 260.818 13.1973 260.818 13.9V29.778C260.818 30.8207 261.034 31.5913 261.464 32.09C261.918 32.5887 262.552 32.838 263.368 32.838C263.55 32.838 263.72 32.838 263.878 32.838C264.037 32.8153 264.196 32.7927 264.354 32.77C264.672 32.7247 264.887 32.8153 265 33.042C265.114 33.246 265.17 33.6767 265.17 34.334C265.17 34.9007 265.057 35.3427 264.83 35.66C264.604 35.9773 264.23 36.17 263.708 36.238C263.482 36.2607 263.244 36.2833 262.994 36.306C262.745 36.3287 262.496 36.34 262.246 36.34ZM272.985 36.34C271.783 36.34 270.707 36.1133 269.755 35.66C268.825 35.184 268.089 34.5493 267.545 33.756C267.023 32.9627 266.763 32.0673 266.763 31.07C266.763 29.846 267.08 28.8827 267.715 28.18C268.349 27.4547 269.381 26.9333 270.809 26.616C272.237 26.2987 274.152 26.14 276.555 26.14H278.255V28.588H276.589C275.183 28.588 274.061 28.656 273.223 28.792C272.384 28.928 271.783 29.166 271.421 29.506C271.081 29.8233 270.911 30.2767 270.911 30.866C270.911 31.614 271.171 32.226 271.693 32.702C272.214 33.178 272.939 33.416 273.869 33.416C274.617 33.416 275.274 33.246 275.841 32.906C276.43 32.5433 276.895 32.056 277.235 31.444C277.575 30.832 277.745 30.1293 277.745 29.336V25.426C277.745 24.2927 277.495 23.4767 276.997 22.978C276.498 22.4793 275.659 22.23 274.481 22.23C273.823 22.23 273.109 22.3093 272.339 22.468C271.591 22.6267 270.797 22.8987 269.959 23.284C269.528 23.488 269.143 23.5447 268.803 23.454C268.485 23.3633 268.236 23.182 268.055 22.91C267.873 22.6153 267.783 22.298 267.783 21.958C267.783 21.618 267.873 21.2893 268.055 20.972C268.236 20.632 268.542 20.3827 268.973 20.224C270.015 19.7933 271.013 19.4873 271.965 19.306C272.939 19.1247 273.823 19.034 274.617 19.034C276.249 19.034 277.586 19.2833 278.629 19.782C279.694 20.2807 280.487 21.04 281.009 22.06C281.53 23.0573 281.791 24.3493 281.791 25.936V34.096C281.791 34.7987 281.621 35.3427 281.281 35.728C280.941 36.0907 280.453 36.272 279.819 36.272C279.184 36.272 278.685 36.0907 278.323 35.728C277.983 35.3427 277.813 34.7987 277.813 34.096V32.464H278.085C277.926 33.2573 277.609 33.9487 277.133 34.538C276.679 35.1047 276.101 35.5467 275.399 35.864C274.696 36.1813 273.891 36.34 272.985 36.34ZM290.24 42.392C289.741 42.392 289.333 42.256 289.016 41.984C288.698 41.7347 288.506 41.3947 288.438 40.964C288.392 40.5333 288.472 40.08 288.676 39.604L290.988 34.47V36.238L284.8 21.924C284.596 21.4253 284.528 20.9607 284.596 20.53C284.664 20.0993 284.868 19.7593 285.208 19.51C285.57 19.238 286.058 19.102 286.67 19.102C287.191 19.102 287.61 19.2267 287.928 19.476C288.245 19.7027 288.528 20.1447 288.778 20.802L293.368 32.26H292.348L297.04 20.768C297.289 20.1333 297.584 19.7027 297.924 19.476C298.264 19.2267 298.717 19.102 299.284 19.102C299.782 19.102 300.179 19.238 300.474 19.51C300.768 19.7593 300.95 20.0993 301.018 20.53C301.086 20.938 301.006 21.3913 300.78 21.89L292.518 40.76C292.223 41.3947 291.906 41.8253 291.566 42.052C291.226 42.2787 290.784 42.392 290.24 42.392Z" fill="#FF479D"/>
</svg>
