<svg width="1440" height="183" viewBox="0 0 1440 183" fill="none" xmlns="http://www.w3.org/2000/svg">
<path d="M1440 10.3896L1438.98 6.52246L1444 5.19531V186.39H-5V5.19531L0.0224609 6.52246L-1 10.3896C0.0221386 6.52245 0.0228151 6.52302 0.0244141 6.52344C0.0264222 6.52397 0.0293206 6.52437 0.0332031 6.52539C0.0413723 6.52754 0.0541986 6.53066 0.0712891 6.53516C0.105681 6.5442 0.158212 6.5578 0.228516 6.57617C0.36926 6.61296 0.581608 6.66891 0.865234 6.74219C1.43277 6.88882 2.28531 7.10703 3.41699 7.39258C5.68077 7.96377 9.06309 8.80358 13.5215 9.87305C22.4386 12.0121 35.6622 15.0708 52.8584 18.7432C87.2516 26.0881 137.536 35.8867 201.048 45.6865C328.075 65.2867 507.992 84.8896 719.5 84.8896C931.008 84.8896 1110.93 65.2867 1237.95 45.6865C1301.46 35.8867 1351.75 26.0881 1386.14 18.7432C1403.34 15.0708 1416.56 12.0121 1425.48 9.87305C1429.94 8.80358 1433.32 7.96377 1435.58 7.39258C1436.71 7.10703 1437.57 6.88882 1438.13 6.74219C1438.42 6.66891 1438.63 6.61296 1438.77 6.57617C1438.84 6.5578 1438.89 6.5442 1438.93 6.53516C1438.95 6.53066 1438.96 6.52754 1438.97 6.52539C1438.97 6.52437 1438.97 6.52397 1438.98 6.52344C1438.98 6.52302 1438.98 6.52245 1440 10.3896Z" fill="#FFD3E1" stroke="#FF98BE" stroke-width="8"/>
</svg>
