<svg width="499" height="201" viewBox="0 0 499 201" fill="none" xmlns="http://www.w3.org/2000/svg">
<path fill-rule="evenodd" clip-rule="evenodd" d="M395.529 113.091C382.612 95.5928 372.607 75.8128 366.231 54.4672C364.621 54.2667 362.98 54.1634 361.316 54.1634C339.561 54.1634 321.924 71.7997 321.924 93.555C321.924 115.31 339.561 132.947 361.316 132.947C375.962 132.947 388.741 124.953 395.529 113.091ZM361.316 74.5384C371.818 74.5384 380.333 83.0525 380.333 93.555C380.333 104.058 371.818 112.572 361.316 112.572C350.813 112.572 342.299 104.058 342.299 93.555C342.299 83.0525 350.813 74.5384 361.316 74.5384Z" fill="#FF479D"/>
<path fill-rule="evenodd" clip-rule="evenodd" d="M192.769 96.0831C186.941 89.6544 181.711 82.6738 177.166 75.2313C178.606 75.5082 180.089 75.6689 181.604 75.7031C196.293 76.034 208.469 64.3476 208.801 49.6009C209.12 35.4385 198.387 23.5895 184.535 22.3941C183.969 22.3453 183.393 22.3136 182.808 22.3004L172.045 22.058L164.146 29.3944C162.727 30.7121 161.454 32.1779 160.35 33.7683C157.916 22.9818 156.743 11.7261 156.991 0.169788L183.293 0.762355C184.329 0.785708 185.357 0.841879 186.376 0.929837C211.439 3.09238 230.831 24.4832 230.254 50.0843C229.745 72.704 213.81 91.3383 192.769 96.0831Z" fill="#67CC6A"/>
<path fill-rule="evenodd" clip-rule="evenodd" d="M150.538 125.068C160.461 136.586 171.735 146.908 184.113 155.788C166.156 182.948 135.343 200.863 100.347 200.863C44.9267 200.863 0 155.936 0 100.516C0 45.0965 44.9267 0.169788 100.347 0.169788C101.654 0.169788 102.956 0.194826 104.252 0.244404L104.252 0.33958C104.252 15.8675 106.103 30.9629 109.597 45.4174C106.588 44.9159 103.498 44.6551 100.347 44.6551C69.4953 44.6551 44.4853 69.665 44.4853 100.516C44.4853 131.368 69.4953 156.378 100.347 156.378C122.389 156.378 141.45 143.611 150.538 125.068Z" fill="#FF479D"/>
<path fill-rule="evenodd" clip-rule="evenodd" d="M162.763 125.068C172.686 136.586 183.96 146.908 196.338 155.788C227.691 178.282 266.13 191.525 307.662 191.525C328.38 191.525 348.328 188.229 367.011 182.134C384.125 176.55 400.178 168.618 414.787 158.716C421.442 154.206 427.797 149.288 433.817 143.997C441.915 136.881 449.406 129.09 456.203 120.713C482.869 87.8481 498.847 45.9599 498.847 0.33958L498.847 0.169788H466.587L466.587 0.33958C466.587 36.7086 454.37 70.2241 433.817 97.0067C413.264 70.2241 401.047 36.7086 401.047 0.33958L401.047 0.169788H368.787L368.787 0.33958C368.787 19.3876 371.573 37.7849 376.759 55.1464C383.135 76.492 393.139 96.272 406.057 113.77C407.796 116.127 409.588 118.441 411.431 120.713C398.305 132.039 383.306 141.255 366.961 147.832C352.02 153.845 335.954 157.653 319.167 158.854C315.367 159.126 311.531 159.264 307.662 159.264C270.737 159.264 236.754 146.672 209.772 125.546C203.658 120.76 197.903 115.535 192.555 109.919C185.657 102.674 179.435 94.7796 173.991 86.3358C164.749 71.999 157.75 56.0794 153.491 39.0734C150.9 28.7261 149.323 17.9767 148.872 6.93674C148.785 4.80489 148.74 2.66211 148.737 0.509371L148.737 0.33958L148.737 0.169788H116.477L116.477 0.244404L116.477 0.33958C116.477 15.8675 118.328 30.9629 121.822 45.4174C122.406 47.8349 123.036 50.2345 123.712 52.6151C126.33 61.8477 129.625 70.7957 133.54 79.4025C133.757 79.8807 133.976 80.3577 134.198 80.8338C134.806 82.1429 135.429 83.444 136.066 84.7368L136.258 85.1247C136.426 85.4649 136.596 85.8047 136.767 86.1439L136.852 86.3134C139.005 90.5829 141.314 94.7605 143.77 98.839C149.363 108.125 155.723 116.898 162.763 125.068Z" fill="#0C78F4"/>
<path fill-rule="evenodd" clip-rule="evenodd" d="M257.234 0.000164889L241.104 0.000164889C235.194 65.113 261.517 113.913 308.681 152.303C325.33 152.621 336.208 149.25 351.468 144.662C295.795 116.37 267.375 65.9817 273.364 -9.2257e-07L257.234 0.000164889Z" fill="#FCBEA7"/>
</svg>
